HIERARCHY
ROOT Hips
{
	OFFSET 0.000000 0.000000 0.000000
	CHANNELS 6 Xposition Yposition Zposition Xrotation Yrotation Zrotation
	JOINT LeftUpLeg_virtual
	{
		OFFSET 0.000000 0.000000 0.000000
		CHANNELS 3 Xrotation Yrotation Zrotation
		JOINT LeftUpLeg
		{
			OFFSET 10.205400 -3.823500 0.155100
			CHANNELS 3 Xrotation Yrotation Zrotation
			JOINT LeftLeg
			{
				OFFSET 0.708757 -12.982077 0.567790
				CHANNELS 3 Xrotation Yrotation Zrotation
				JOINT LeftFoot
				{
					OFFSET -0.708756 -10.717838 -2.184338
					CHANNELS 3 Xrotation Yrotation Zrotation
					JOINT LeftToeBase
					{
						OFFSET 0.108149 -7.191104 7.560241
						CHANNELS 3 Xrotation Yrotation Zrotation
						JOINT LeftToe_End
						{
							OFFSET 0.070230 0.081724 4.490308
							CHANNELS 3 Xrotation Yrotation Zrotation
							End Site
							{
								OFFSET 0 0 0
							}
						}
					}
				}
			}
		}
	}
	JOINT RightUpLeg_virtual
	{
		OFFSET 0.000000 0.000000 0.000000
		CHANNELS 3 Xrotation Yrotation Zrotation
		JOINT RightUpLeg
		{
			OFFSET -10.205400 -3.823500 0.005500
			CHANNELS 3 Xrotation Yrotation Zrotation
			JOINT RightLeg
			{
				OFFSET -0.708756 -12.982134 0.610632
				CHANNELS 3 Xrotation Yrotation Zrotation
				JOINT RightFoot
				{
					OFFSET 0.708754 -10.717769 -1.945823
					CHANNELS 3 Xrotation Yrotation Zrotation
					JOINT RightToeBase
					{
						OFFSET -0.108140 -7.191069 7.372968
						CHANNELS 3 Xrotation Yrotation Zrotation
						JOINT RightToe_End
						{
							OFFSET -0.070227 0.081735 4.479403
							CHANNELS 3 Xrotation Yrotation Zrotation
							End Site
							{
								OFFSET 0 0 0
							}
						}
					}
				}
			}
		}
	}
	JOINT Spine_virtual
	{
		OFFSET 0.000000 0.000000 0.000000
		CHANNELS 3 Xrotation Yrotation Zrotation
		JOINT Spine
		{
			OFFSET 0.000000 6.876099 0.125700
			CHANNELS 3 Xrotation Yrotation Zrotation
			JOINT Spine1
			{
				OFFSET 0.000000 5.730043 0.104720
				CHANNELS 3 Xrotation Yrotation Zrotation
				JOINT Spine1_split
				{
					OFFSET 0.000000 5.730043 0.104720
					CHANNELS 3 Xrotation Yrotation Zrotation
					JOINT Spine2
					{
						OFFSET 0.000000 5.730043 0.104720
						CHANNELS 3 Xrotation Yrotation Zrotation
						JOINT Neck_virtual
						{
							OFFSET 0.000000 0.000000 0.000000
							CHANNELS 3 Xrotation Yrotation Zrotation
							JOINT Neck
							{
								OFFSET 0.000000 10.314075 0.188496
								CHANNELS 3 Xrotation Yrotation Zrotation
								JOINT Head
								{
									OFFSET 0.000000 7.643700 -2.377400
									CHANNELS 3 Xrotation Yrotation Zrotation
									JOINT HeadTop_End
									{
										OFFSET 0.000000 43.788605 -13.619600
										CHANNELS 3 Xrotation Yrotation Zrotation
										End Site
										{
											OFFSET 0 0 0
										}
									}
								}
							}
						}
						JOINT LeftShoulder_virtual
						{
							OFFSET 0.000000 0.000000 0.000000
							CHANNELS 3 Xrotation Yrotation Zrotation
							JOINT LeftShoulder
							{
								OFFSET 2.196100 4.412489 0.087492
								CHANNELS 3 Xrotation Yrotation Zrotation
								JOINT LeftShoulder_split
								{
									OFFSET 2.196100 4.412489 0.087492
									CHANNELS 3 Xrotation Yrotation Zrotation
									JOINT LeftArm
									{
										OFFSET 8.771219 -2.981674 -0.026999
										CHANNELS 3 Xrotation Yrotation Zrotation
										JOINT LeftForeArm
										{
											OFFSET 8.512804 0.000000 -0.000000
											CHANNELS 3 Xrotation Yrotation Zrotation
											JOINT LeftHand
											{
												OFFSET 18.484802 0.000000 -0.000000
												CHANNELS 3 Xrotation Yrotation Zrotation
												End Site
												{
													OFFSET 0 0 0
												}
											}
										}
									}
								}
							}
						}
						JOINT RightShoulder_virtual
						{
							OFFSET 0.000000 0.000000 0.000000
							CHANNELS 3 Xrotation Yrotation Zrotation
							JOINT RightShoulder
							{
								OFFSET -2.196100 4.412496 0.070690
								CHANNELS 3 Xrotation Yrotation Zrotation
								JOINT RightShoulder_split
								{
									OFFSET -2.196100 4.412496 0.070690
									CHANNELS 3 Xrotation Yrotation Zrotation
									JOINT RightArm
									{
										OFFSET -8.771282 -2.981682 -0.094208
										CHANNELS 3 Xrotation Yrotation Zrotation
										JOINT RightForeArm
										{
											OFFSET -8.494598 0.000000 0.000000
											CHANNELS 3 Xrotation Yrotation Zrotation
											JOINT RightHand
											{
												OFFSET -18.483803 0.000000 0.000001
												CHANNELS 3 Xrotation Yrotation Zrotation
												End Site
												{
													OFFSET 0 0 0
												}
											}
										}
									}
								}
							}
						}
					}
				}
			}
		}
	}
}
MOTION
Frames: 5
Frame Time: 0.03333333
-0.766683 28.513206 3.935720 0.000000 0.000000 0.000000 12.843454 -77.296103 10.890939 -28.231339 49.639035 51.247224 58.199653 8.321767 -14.170958 -35.791270 4.250022 15.918014 -13.508430 4.651022 -7.784928 0.000000 0.000000 0.000000 6.885262 -64.908367 5.582759 -16.634046 -3.894398 -30.403525 26.591339 8.453823 -5.459155 -25.441843 -2.205531 35.203471 -9.630420 -2.814793 -4.138239 0.000000 0.000000 0.000000 -2.769269 -71.248319 -1.907662 12.361193 -12.072049 12.285549 -3.861940 -10.657002 5.112358 -1.115468 -2.090527 0.822771 0.000000 0.000000 0.000000 -8.599595 -11.136543 5.335630 3.167365 39.278417 1.161383 9.910656 23.733190 -5.861448 0.000000 0.000000 0.000000 -9.620763 -11.107046 5.305551 5.499349 -19.825466 17.868907 8.376073 1.897698 -6.796354 -1.917563 -15.379354 6.010992 0.719513 -34.728609 -1.747111 0.000000 0.000000 0.000000 -11.487641 -11.608424 4.964150 4.433702 -19.827117 8.383459 4.764266 -0.442827 -0.926618 -55.418994 4.101450 -10.180973 -10.253267 50.466417 14.256382 0.000000 0.000000 0.000000 
-1.239497 29.041609 4.477563 0.000000 0.000000 0.000000 5.400071 -75.486376 3.550244 -21.293688 51.357282 46.621632 52.980302 11.305349 -12.134560 -42.379439 6.736729 19.573102 -6.143424 5.044114 -12.289004 0.000000 0.000000 0.000000 1.660785 -62.596191 0.550474 -9.360950 -5.115057 -29.530231 28.012764 5.204945 -4.348537 -31.029618 -6.395276 26.409483 -12.394372 -5.754403 -0.146063 0.000000 0.000000 0.000000 -6.230444 -69.246254 -6.109451 10.752234 -11.897392 11.850133 -4.632986 -10.879793 5.204503 -0.348271 -1.832119 1.048224 0.000000 0.000000 0.000000 -9.828605 -11.435268 5.335872 4.662360 35.247768 3.466882 10.183745 21.190944 -3.174395 0.000000 0.000000 0.000000 -11.101544 -11.287762 5.158360 6.663071 -21.037321 26.364870 8.235147 1.353069 -7.327653 -5.161910 -25.529873 10.454434 2.218352 -27.138853 0.833666 0.000000 0.000000 0.000000 -13.158927 -11.885304 4.918561 2.488046 -20.041547 5.977686 4.970678 -1.574201 -0.221791 -59.407592 6.847382 -12.818834 -8.739960 48.868863 14.709004 0.000000 0.000000 0.000000 
-1.630774 29.580799 5.094746 0.000000 0.000000 0.000000 -1.118203 -71.554926 -2.386205 -14.849692 50.526963 41.873714 48.781092 9.470582 -8.532399 -42.347067 9.378402 14.539024 -4.242686 5.203628 -15.421174 0.000000 0.000000 0.000000 -3.261256 -60.665440 -3.412107 -3.028171 -4.668844 -29.078103 31.038685 -0.291796 -2.746519 -31.729418 -9.436374 14.338550 -17.258843 -10.554583 7.910384 0.000000 0.000000 0.000000 -6.867650 -66.309655 -7.296887 8.994794 -11.582788 11.038250 -5.568553 -10.781310 4.939944 1.227616 -1.832126 0.428504 0.000000 0.000000 0.000000 -10.980768 -11.374438 5.019657 7.034290 30.946023 5.097546 10.252784 19.380249 -1.002319 0.000000 0.000000 0.000000 -12.653247 -11.276725 4.844848 7.242505 -20.339424 35.098512 7.198335 1.512991 -7.599261 -11.900952 -34.819430 11.505502 3.575806 -21.811403 3.131923 0.000000 0.000000 0.000000 -14.865031 -11.973388 4.685906 0.442007 -20.250387 2.689275 4.157593 -2.732571 0.488540 -63.537172 9.136034 -14.432731 -5.839689 46.941039 13.935612 0.000000 0.000000 0.000000 
-1.961382 30.032406 5.854380 0.000000 0.000000 0.000000 -4.439357 -65.672631 -5.119354 -9.340027 48.870321 37.623902 45.096133 5.236402 -4.746015 -37.664740 11.380849 4.053709 -7.312954 5.496460 -16.564833 0.000000 0.000000 0.000000 -7.138359 -58.943563 -5.932943 1.585981 -2.594194 -29.566472 35.558358 -5.710260 -0.456882 -23.494784 -11.767518 4.630576 -25.935838 -17.220392 16.644491 0.000000 0.000000 0.000000 -5.709667 -62.603615 -6.401169 7.151760 -11.147557 9.735712 -6.681728 -10.371465 4.191651 2.312910 -2.176551 -0.172870 0.000000 0.000000 0.000000 -11.944036 -10.931168 4.235025 9.728980 26.614324 6.065638 10.547526 18.145431 0.258275 0.000000 0.000000 0.000000 -14.146214 -10.980071 4.236230 6.671040 -18.003163 42.855622 5.707283 3.247962 -6.992373 -23.216373 -41.500468 8.217925 4.271372 -20.073463 4.706748 0.000000 0.000000 0.000000 -16.505475 -11.821427 4.059091 -1.703196 -20.666445 -2.172562 2.478229 -3.369676 0.757874 -66.918539 9.388701 -15.509109 -2.323034 45.498404 12.217086 0.000000 0.000000 0.000000 
-2.247713 30.243551 6.658410 0.000000 0.000000 0.000000 -5.338690 -58.862884 -5.770376 -4.759438 47.651535 34.171272 41.703414 1.067321 -1.830539 -32.237882 11.459084 -7.344668 -13.466620 5.534980 -15.288615 0.000000 0.000000 0.000000 -8.514009 -56.063566 -6.552364 3.593930 0.116078 -30.532814 40.742317 -8.893956 1.879540 -6.507474 -13.419003 2.980393 -36.133634 -23.936208 22.137803 0.000000 0.000000 0.000000 -4.558067 -57.718329 -4.895365 5.523846 -10.678031 7.882758 -7.836596 -9.642295 2.879774 2.826158 -3.047430 -0.197039 0.000000 0.000000 0.000000 -12.727424 -10.119978 2.948165 12.005557 22.194795 6.321000 11.431063 17.005967 0.479908 0.000000 0.000000 0.000000 -15.350531 -10.358971 3.212700 4.767129 -14.458530 48.633949 4.324735 5.263070 -5.151178 -37.108476 -44.550756 1.414014 4.080366 -21.876584 5.276633 0.000000 0.000000 0.000000 -17.935860 -11.243512 2.896176 -4.078641 -21.005564 -9.143019 0.370431 -3.553243 1.193909 -69.836253 7.501903 -16.475067 0.752490 44.335236 9.934026 0.000000 0.000000 0.000000 
